<?xml version="1.0" encoding="utf-8"?>
<!-- Generator: Adobe Illustrator 27.3.1, SVG Export Plug-In . SVG Version: 6.00 Build 0)  -->
<svg version="1.1" id="Layer_1" xmlns="http://www.w3.org/2000/svg" xmlns:xlink="http://www.w3.org/1999/xlink" x="0px" y="0px"
	 viewBox="0 0 448 512" style="enable-background:new 0 0 448 512;" xml:space="preserve">
<style type="text/css">
	.st0{fill:#FFFFFF;}
</style>
<path class="st0" d="M219.9,35.9c2.7-0.5,5.4-0.5,8.1,0l172.3,34.5C410,72.2,417,80.7,417,90.6s-7,18.4-16.6,20.2l-66.1,13.3v49.2
	c0,60.9-49.4,110.3-110.3,110.3s-110.3-49.4-110.3-110.3v-49.2l-41.4-8.3v56.1l13.5,67.6c0.8,4-0.3,8.3-2.8,11.5
	c-2.6,3.2-6.5,5.1-10.7,5.1H44.8c-4.1,0-8-1.8-10.7-5.1c-2.7-3.3-3.7-7.4-2.8-11.5l13.5-67.6V110C36.6,107.2,31,99.4,31,90.6
	c0-9.8,7-18.4,16.6-20.2L219.9,35.9z M127.4,317.8c9-2.9,18.8,0.3,25.3,7.3l61.2,65.1c5.4,5.8,14.6,5.8,20.1,0l61.2-65.1
	c6.5-7,16.3-10.3,25.3-7.3c56,18,96.5,70.4,96.5,132.3c0,14.6-11.9,26.5-26.5,26.5H57.4c-14.6,0-26.5-11.9-26.5-26.5
	C31,388.2,71.5,335.8,127.4,317.8L127.4,317.8z"/>
</svg>
